<?xml version="1.0" encoding="utf-8"?>
<!-- Generator: Adobe Illustrator 16.0.3, SVG Export Plug-In . SVG Version: 6.00 Build 0)  -->
<!DOCTYPE svg PUBLIC "-//W3C//DTD SVG 1.1//EN" "http://www.w3.org/Graphics/SVG/1.1/DTD/svg11.dtd" [
	<!ENTITY ns_extend "http://ns.adobe.com/Extensibility/1.0/">
	<!ENTITY ns_ai "http://ns.adobe.com/AdobeIllustrator/10.0/">
	<!ENTITY ns_graphs "http://ns.adobe.com/Graphs/1.0/">
	<!ENTITY ns_vars "http://ns.adobe.com/Variables/1.0/">
	<!ENTITY ns_imrep "http://ns.adobe.com/ImageReplacement/1.0/">
	<!ENTITY ns_sfw "http://ns.adobe.com/SaveForWeb/1.0/">
	<!ENTITY ns_custom "http://ns.adobe.com/GenericCustomNamespace/1.0/">
	<!ENTITY ns_adobe_xpath "http://ns.adobe.com/XPath/1.0/">
]>
<svg version="1.1" id="Layer_1" xmlns:x="&ns_extend;" xmlns:i="&ns_ai;" xmlns:graph="&ns_graphs;"
	 xmlns="http://www.w3.org/2000/svg" xmlns:xlink="http://www.w3.org/1999/xlink" x="0px" y="0px" width="205.5px" height="26px"
	 viewBox="0 0 205.5 26" enable-background="new 0 0 205.5 26" xml:space="preserve">
<metadata>
	<sfw  xmlns="&ns_sfw;">
		<slices></slices>
		<sliceSourceBounds  height="29.001" width="179.999" x="-69.5" y="-11.501" bottomLeftOrigin="true"></sliceSourceBounds>
	</sfw>
</metadata>
<g>
	
		<image overflow="visible" opacity="0.3" enable-background="new    " width="25" height="28" xlink:href="2913CC1C.png"  transform="matrix(1 0 0 1 -1.9995 -1)">
	</image>
	<g>
		<path fill="#FFFFFF" d="M11.993,3.392l7.593,7.233c0.549,0.523,0.549,1.371,0,1.895c-0.549,0.523-1.44,0.523-1.989,0l-5.193-4.946
			V23.66c0,0.74-0.629,1.34-1.406,1.34c-0.776,0-1.406-0.6-1.406-1.34V7.573L4.4,12.52c-0.549,0.523-1.439,0.523-1.989,0
			C2.137,12.258,2,11.915,2,11.572c0-0.343,0.137-0.686,0.412-0.947l7.593-7.233C10.554,2.869,11.444,2.869,11.993,3.392z"/>
	</g>
</g>
<g>
	
		<image overflow="visible" opacity="0.3" enable-background="new    " width="22" height="25" xlink:href="2913CC1E.png"  transform="matrix(1 0 0 1 43.9995 2)">
	</image>
	<g>
		<path fill="#FFFFFF" d="M55.884,7.321l6.751,5.917c0.486,0.429,0.486,1.124,0,1.55c-0.489,0.428-1.281,0.428-1.769,0l-4.616-4.047
			v13.161C56.25,24.51,55.69,25,55,25c-0.691,0-1.25-0.49-1.25-1.098v-13.16l-4.616,4.047c-0.487,0.428-1.279,0.428-1.767,0
			C47.122,14.574,47,14.294,47,14.014c0-0.279,0.122-0.561,0.367-0.774l6.75-5.917C54.605,6.893,55.396,6.893,55.884,7.321z"/>
	</g>
</g>
<g>
	
		<image overflow="visible" opacity="0.3" enable-background="new    " width="22" height="25" xlink:href="2913CC1A.png"  transform="matrix(1 0 0 1 65.9995 -2)">
	</image>
	<g>
		<path fill="#FFFFFF" d="M76.116,20.68l-6.751-5.918c-0.486-0.429-0.486-1.123,0-1.551c0.489-0.428,1.281-0.428,1.769,0
			l4.616,4.047V4.096C75.75,3.49,76.311,3,77,3c0.691,0,1.25,0.49,1.25,1.097v13.162l4.616-4.047c0.487-0.428,1.278-0.428,1.767,0
			C84.878,13.426,85,13.706,85,13.986c0,0.279-0.122,0.561-0.367,0.774l-6.75,5.917C77.395,21.107,76.604,21.107,76.116,20.68z"/>
	</g>
</g>
<g>
	
		<image overflow="visible" opacity="0.3" enable-background="new    " width="24" height="28" xlink:href="2913CC1B.png"  transform="matrix(1 0 0 1 21.0005 -1)">
	</image>
	<g>
		<path fill="#FFFFFF" d="M32.006,24.607l-7.593-7.232c-0.549-0.523-0.549-1.371,0-1.895c0.55-0.523,1.44-0.523,1.989,0l5.192,4.945
			V4.34C31.594,3.6,32.224,3,33,3s1.406,0.6,1.406,1.34v16.087L39.6,15.48c0.549-0.523,1.439-0.523,1.988,0
			C41.862,15.742,42,16.085,42,16.428c0,0.344-0.138,0.687-0.412,0.947l-7.594,7.232C33.445,25.131,32.555,25.131,32.006,24.607z"/>
	</g>
</g>
<g>
	
		<image overflow="visible" opacity="0.3" enable-background="new    " width="24" height="8" xlink:href="2913CC14.png"  transform="matrix(1 0 0 1 43.0005 -1)">
	</image>
	<g>
		<path fill="#FFFFFF" d="M64,4c0,0.552-0.447,1-1,1H47c-0.553,0-1-0.448-1-1l0,0c0-0.552,0.447-1,1-1h16C63.553,3,64,3.448,64,4
			L64,4z"/>
	</g>
</g>
<g>
	
		<image overflow="visible" opacity="0.3" enable-background="new    " width="22" height="25" xlink:href="2913CC09.png"  transform="matrix(1 0 0 1 133 -2.0005)">
	</image>
	<g>
		<path fill="#FFFFFF" d="M144.884,3.32l6.751,5.917c0.486,0.429,0.486,1.124,0,1.55c-0.488,0.428-1.28,0.428-1.769,0l-4.616-4.047
			v13.161c0,0.607-0.56,1.098-1.25,1.098s-1.249-0.49-1.249-1.098V6.742l-4.617,4.047c-0.487,0.428-1.279,0.428-1.767,0
			c-0.245-0.215-0.367-0.495-0.367-0.775c0-0.279,0.122-0.561,0.367-0.774l6.751-5.917C143.605,2.893,144.396,2.893,144.884,3.32z"
			/>
	</g>
</g>
<g>
	
		<image overflow="visible" opacity="0.3" enable-background="new    " width="24" height="8" xlink:href="2913CC0A.png"  transform="matrix(1 0 0 1 132 19.001)">
	</image>
	<g>
		<path fill="#FFFFFF" d="M153,24.002c0,0.552-0.446,1-1,1h-16c-0.554,0-1-0.448-1-1l0,0c0-0.553,0.446-1.001,1-1.001h16
			C152.554,23.001,153,23.449,153,24.002L153,24.002z"/>
	</g>
</g>
<g>
	
		<image overflow="visible" opacity="0.3" enable-background="new    " width="24" height="8" xlink:href="2913CC0B.png"  transform="matrix(1 0 0 1 65.0005 19)">
	</image>
	<g>
		<path fill="#FFFFFF" d="M68,24c0-0.552,0.447-1,1-1h16c0.553,0,1,0.448,1,1l0,0c0,0.553-0.447,1-1,1H69C68.447,25,68,24.553,68,24
			L68,24z"/>
	</g>
</g>
<g>
	
		<image overflow="visible" opacity="0.3" enable-background="new    " width="22" height="25" xlink:href="2913CC0C.png"  transform="matrix(1 0 0 1 154.999 2.001)">
	</image>
	<g>
		<path fill="#FFFFFF" d="M165.116,24.681l-6.751-5.918c-0.486-0.429-0.486-1.123,0-1.551c0.488-0.428,1.28-0.428,1.769,0
			l4.616,4.047V8.097c0-0.606,0.561-1.096,1.25-1.096c0.691,0,1.25,0.49,1.25,1.097V21.26l4.616-4.046
			c0.487-0.428,1.278-0.428,1.767,0c0.245,0.213,0.367,0.493,0.367,0.773c0,0.279-0.122,0.561-0.367,0.774l-6.75,5.917
			C166.395,25.108,165.604,25.108,165.116,24.681z"/>
	</g>
</g>
<g>
	
		<image overflow="visible" opacity="0.3" enable-background="new    " width="24" height="8" xlink:href="EFDC7F1F.png"  transform="matrix(1 0 0 1 154 -1)">
	</image>
	<g>
		<path fill="#FFFFFF" d="M157,4c0-0.551,0.446-1,1-1h16c0.553,0,1,0.448,1,1l0,0c0,0.553-0.447,1-1,1h-16
			C157.446,5,157,4.552,157,4L157,4z"/>
	</g>
</g>
<g>
	
		<image overflow="visible" opacity="0.3" enable-background="new    " width="24" height="8" xlink:href="EFDC7F1B.png"  transform="matrix(1 0 0 1 87 19)">
	</image>
	<g>
		<path fill="#FFFFFF" d="M90,24c0-0.552,0.447-1,1-1h16c0.553,0,1,0.448,1,1l0,0c0,0.553-0.447,1-1,1H91C90.447,25,90,24.553,90,24
			L90,24z"/>
	</g>
</g>
<g>
	
		<image overflow="visible" opacity="0.3" enable-background="new    " width="24" height="8" xlink:href="EFDC7F06.png"  transform="matrix(1 0 0 1 87 -1)">
	</image>
	<g>
		<path fill="#FFFFFF" d="M90,4c0-0.552,0.447-1,1-1h16c0.553,0,1,0.448,1,1l0,0c0,0.553-0.447,1-1,1H91C90.447,5,90,4.553,90,4
			L90,4z"/>
	</g>
</g>
<g>
	
		<image overflow="visible" opacity="0.3" enable-background="new    " width="24" height="8" xlink:href="EFDC7F07.png"  transform="matrix(1 0 0 1 110 9)">
	</image>
	<g>
		<path fill="#FFFFFF" d="M113,14c0-0.552,0.447-1,1-1h16c0.553,0,1,0.448,1,1l0,0c0,0.553-0.447,1-1,1h-16
			C113.447,15,113,14.553,113,14L113,14z"/>
	</g>
</g>
<g>
	
		<image overflow="visible" opacity="0.3" enable-background="new    " width="12" height="12" xlink:href="EFDC7F17.png"  transform="matrix(1 0 0 1 93 6.9995)">
	</image>
	<g>
		<circle fill="#FFFFFF" cx="99" cy="14" r="3"/>
	</g>
</g>
<g>
	
		<image overflow="visible" opacity="0.3" enable-background="new    " width="12" height="12" xlink:href="EFDC7F08.png"  transform="matrix(1 0 0 1 116 -1.0005)">
	</image>
	<g>
		<circle fill="#FFFFFF" cx="122" cy="6" r="3"/>
	</g>
</g>
<g>
	
		<image overflow="visible" opacity="0.3" enable-background="new    " width="12" height="12" xlink:href="EFDC7F0B.png"  transform="matrix(1 0 0 1 116 15)">
	</image>
	<g>
		<circle fill="#FFFFFF" cx="122" cy="22" r="3"/>
	</g>
</g>
</svg>
